<svg xmlns="http://www.w3.org/2000/svg" width="1280" height="640" viewBox="0 0 1280 640" role="img" aria-labelledby="title desc">
  <title id="title">Open Workflow Kit social preview</title>
  <desc id="desc">Open Workflow Kit, team-level AI Coding delivery governance. Completion Contract, Evidence Ledger and Delivery Gates.</desc>
  <defs>
    <linearGradient id="bg" x1="0" y1="0" x2="1" y2="1"><stop stop-color="#070B14"/><stop offset="1" stop-color="#0B1220"/></linearGradient>
    <linearGradient id="accent" x1="0" y1="0" x2="1" y2="1"><stop stop-color="#6D7CFF"/><stop offset="1" stop-color="#48D7FF"/></linearGradient>
    <pattern id="grid" width="48" height="48" patternUnits="userSpaceOnUse"><path d="M48 0H0V48" fill="none" stroke="#A7B0C0" stroke-opacity=".06"/></pattern>
  </defs>
  <rect width="1280" height="640" fill="url(#bg)"/>
  <rect width="1280" height="640" fill="url(#grid)"/>
  <g font-family="-apple-system, BlinkMacSystemFont, Segoe UI, sans-serif">
    <g transform="translate(72 72)">
      <rect width="68" height="68" rx="20" fill="url(#accent)"/>
      <path d="M20 22h28M20 34h19M20 46h23" stroke="#070B14" stroke-width="5" stroke-linecap="round"/>
    </g>
    <text x="72" y="238" fill="#F8FAFC" font-size="72" font-weight="780" letter-spacing="-2">Open Workflow Kit</text>
    <text x="72" y="298" fill="#A7B0C0" font-size="30">Team-level AI Coding delivery governance</text>
    <text x="72" y="348" fill="#F8FAFC" font-size="28">把“完成”变成可检查、可执行、可复验的证据链。</text>
    <g transform="translate(72 414)">
      <rect width="300" height="64" rx="20" fill="#6D7CFF" fill-opacity=".14" stroke="#6D7CFF"/><text x="150" y="41" text-anchor="middle" fill="#D9DEFF" font-size="28" font-weight="700">Completion Contract</text>
      <path d="M388 32h56" stroke="#48D7FF" stroke-width="4"/><path d="M434 22l12 10-12 10" fill="none" stroke="#48D7FF" stroke-width="4"/>
      <rect x="462" width="262" height="64" rx="20" fill="#48D7FF" fill-opacity=".10" stroke="#48D7FF"/><text x="593" y="41" text-anchor="middle" fill="#C9F5FF" font-size="28" font-weight="700">Evidence Ledger</text>
      <path d="M740 32h56" stroke="#48D7FF" stroke-width="4"/><path d="M786 22l12 10-12 10" fill="none" stroke="#48D7FF" stroke-width="4"/>
      <rect x="814" width="242" height="64" rx="20" fill="#F8FAFC" fill-opacity=".06" stroke="#A7B0C0"/><text x="935" y="41" text-anchor="middle" fill="#F8FAFC" font-size="28" font-weight="700">Delivery Gates</text>
    </g>
    <text x="72" y="564" fill="#A7B0C0" font-size="28">github.com/bluecoast1379/open-workflow-kit</text>
  </g>
</svg>
